#tb 0: 1/25
0,          0,          0,        1,   691200, 0x00000000
0,         25,         25,        1,   691200, 0xc88a6f24
0,         50,         50,        1,   691200, 0x906d474c
